<?xml version="1.0" encoding="iso-8859-1"?>
<!-- Generator: Adobe Illustrator 19.0.0, SVG Export Plug-In . SVG Version: 6.00 Build 0)  -->
<svg version="1.1" id="Capa_1" xmlns="http://www.w3.org/2000/svg" xmlns:xlink="http://www.w3.org/1999/xlink" x="0px" y="0px"
	 viewBox="0 0 511.996 511.996" style="enable-background:new 0 0 511.996 511.996;" xml:space="preserve">
<linearGradient id="SVGID_1_" gradientUnits="userSpaceOnUse" x1="184.6503" y1="455.8867" x2="217.9803" y2="394.2657" gradientTransform="matrix(1.0039 0 0 -1.0039 0.1922 516.5605)">
	<stop  offset="0" style="stop-color:#9EB644"/>
	<stop  offset="1" style="stop-color:#738611"/>
</linearGradient>
<path style="fill:url(#SVGID_1_);" d="M437.388,170.465L333.876,10.439c-7.32-10.844-22.045-13.702-32.889-6.382L54.448,170.465
	H437.388z"/>
<linearGradient id="SVGID_2_" gradientUnits="userSpaceOnUse" x1="199.7224" y1="365.8692" x2="14.8824" y2="315.3392" gradientTransform="matrix(1.0039 0 0 -1.0039 0.1922 516.5605)">
	<stop  offset="0" style="stop-color:#9EB644"/>
	<stop  offset="1" style="stop-color:#738611"/>
</linearGradient>
<path style="fill:url(#SVGID_2_);" d="M449.649,170.465L378.674,32.646c-6.554-12.727-22.184-17.73-34.909-11.176L54.448,170.465
	H449.649z"/>
<linearGradient id="SVGID_3_" gradientUnits="userSpaceOnUse" x1="260.9595" y1="337.1728" x2="260.9595" y2="-170.6972" gradientTransform="matrix(1.0039 0 0 -1.0039 0.1922 516.5605)">
	<stop  offset="0" style="stop-color:#816965"/>
	<stop  offset="1" style="stop-color:#654E48"/>
</linearGradient>
<path style="fill:url(#SVGID_3_);" d="M431.044,486.666H93.306c-27.522,0-49.833-22.311-49.833-49.833V166.181
	c0-27.522,22.311-49.833,49.833-49.833h337.738c27.522,0,49.833,22.311,49.833,49.833v270.652
	C480.877,464.355,458.566,486.666,431.044,486.666z"/>
<linearGradient id="SVGID_4_" gradientUnits="userSpaceOnUse" x1="506.8558" y1="137.5736" x2="393.8258" y2="250.6036" gradientTransform="matrix(1.0039 0 0 -1.0039 0.1922 516.5605)">
	<stop  offset="0" style="stop-color:#654E48;stop-opacity:0"/>
	<stop  offset="1" style="stop-color:#503837"/>
</linearGradient>
<path style="fill:url(#SVGID_4_);" d="M480.877,436.833V261.926h-81.174c-21.86,0-39.581,17.721-39.581,39.581
	c0,11.557,4.955,21.954,12.854,29.19l107.857,107.857C480.853,437.983,480.877,437.41,480.877,436.833z"/>
<linearGradient id="SVGID_5_" gradientUnits="userSpaceOnUse" x1="426.0155" y1="240.4928" x2="426.0155" y2="131.9328" gradientTransform="matrix(1.0039 0 0 -1.0039 0.1922 516.5605)">
	<stop  offset="0" style="stop-color:#654E48"/>
	<stop  offset="1" style="stop-color:#503837"/>
</linearGradient>
<path style="fill:url(#SVGID_5_);" d="M480.544,341.088h-82.183c-21.86,0-39.581-17.721-39.581-39.581l0,0
	c0-21.86,17.721-39.581,39.581-39.581h82.183c9.076,0,16.433,7.358,16.433,16.433v46.295
	C496.978,333.73,489.62,341.088,480.544,341.088z"/>
<linearGradient id="SVGID_6_" gradientUnits="userSpaceOnUse" x1="388.375" y1="224.9028" x2="429.705" y2="183.5728" gradientTransform="matrix(1.0039 0 0 -1.0039 0.1922 516.5605)">
	<stop  offset="0" style="stop-color:#FFE7A5"/>
	<stop  offset="0.966" style="stop-color:#FFBF5C"/>
</linearGradient>
<circle style="fill:url(#SVGID_6_);" cx="400.822" cy="301.508" r="25.94"/>
<linearGradient id="SVGID_7_" gradientUnits="userSpaceOnUse" x1="235.1342" y1="-28.0975" x2="172.3142" y2="135.6225" gradientTransform="matrix(1.0039 0 0 -1.0039 0.1922 516.5605)">
	<stop  offset="0" style="stop-color:#654E48;stop-opacity:0"/>
	<stop  offset="1" style="stop-color:#503837"/>
</linearGradient>
<path style="fill:url(#SVGID_7_);" d="M93.306,486.666h275.565L266.457,384.252c-18.983-18.983-47.516-22.568-70.125-10.786
	l-17.439-17.388c-10.952-11.758-26.562-19.118-43.897-19.118c-31.472,0-57.265,24.24-59.772,55.065
	c-11.026-0.04-22.054,2.956-31.75,8.957v35.851C43.473,464.355,65.784,486.666,93.306,486.666z"/>
<linearGradient id="SVGID_8_" gradientUnits="userSpaceOnUse" x1="204.715" y1="71.2828" x2="290.485" y2="157.0528" gradientTransform="matrix(1.0039 0 0 -1.0039 0.1922 516.5605)">
	<stop  offset="0" style="stop-color:#FFE7A5"/>
	<stop  offset="0.966" style="stop-color:#FFBF5C"/>
</linearGradient>
<circle style="fill:url(#SVGID_8_);" cx="224.042" cy="426.667" r="59.99"/>
<linearGradient id="SVGID_9_" gradientUnits="userSpaceOnUse" x1="240.305" y1="106.8728" x2="158.775" y2="25.3428" gradientTransform="matrix(1.0039 0 0 -1.0039 0.1922 516.5605)">
	<stop  offset="0" style="stop-color:#FFE7A5"/>
	<stop  offset="0.966" style="stop-color:#FFBF5C"/>
</linearGradient>
<circle style="fill:url(#SVGID_9_);" cx="224.042" cy="426.667" r="57.024"/>
<linearGradient id="SVGID_10_" gradientUnits="userSpaceOnUse" x1="209.5139" y1="76.0839" x2="272.714" y2="139.2739" gradientTransform="matrix(1.0039 0 0 -1.0039 0.1922 516.5605)">
	<stop  offset="0" style="stop-color:#FFE7A5"/>
	<stop  offset="0.966" style="stop-color:#FFBF5C"/>
</linearGradient>
<circle style="fill:url(#SVGID_10_);" cx="224.042" cy="426.667" r="44.203"/>
<g>
	<path style="fill:#DB9E36;" d="M196.851,421.8l3.343-3.307c1.034-1.023,2.416-1.648,4.146-1.874
		c1.73-0.227,3.541-0.189,5.432,0.113l5.688,0.927c1.895,0.309,3.707,0.371,5.434,0.189c1.726-0.184,3.072-0.752,4.037-1.707
		c0.964-0.954,1.495-2.105,1.592-3.453c0.096-1.348-0.457-2.631-1.663-3.851c-1.024-1.035-2.141-1.592-3.349-1.672
		c-1.209-0.079-2.371,0.435-3.491,1.542c-0.365,0.361-0.862,0.5-1.489,0.415c-0.627-0.086-1.225-0.417-1.794-0.991
		c-1.092-1.104-0.961-2.327,0.398-3.67c1.794-1.775,3.948-2.531,6.464-2.265c2.516,0.265,4.729,1.363,6.641,3.296
		c2.025,2.047,3.108,4.424,3.249,7.131c0.141,2.706-0.805,5.064-2.838,7.076c-1.378,1.363-3.051,2.256-5.019,2.677
		c-1.969,0.422-3.912,0.501-5.831,0.237c-1.92-0.263-3.793-0.572-5.62-0.927c-1.827-0.354-3.502-0.542-5.021-0.563
		c-1.521-0.021-2.636,0.321-3.348,1.025l-1.309,1.294l10.037,10.145c0.318,0.322,0.442,0.758,0.37,1.306
		c-0.071,0.549-0.326,1.039-0.763,1.472c-0.438,0.433-0.942,0.694-1.512,0.783c-0.571,0.09-1.015-0.025-1.331-0.344l-12.07-12.2
		c-0.361-0.365-0.603-0.839-0.724-1.421C196.394,422.602,196.506,422.141,196.851,421.8z"/>
	<path style="fill:#DB9E36;" d="M218.068,433.855c1.127-1.114,2.282-1.074,3.467,0.121c1.229,1.242,1.36,2.341,0.395,3.297
		c-0.966,0.956-1.344,2.092-1.133,3.409c0.21,1.317,0.884,2.55,2.023,3.7c2.732,2.761,5.546,2.707,8.444-0.161l0.656-0.649
		c1.449-1.434,2.183-2.866,2.203-4.296c0.019-1.431-0.619-2.8-1.917-4.112l-4.95-5.004c-1.024-1.035-1.066-2.017-0.126-2.947
		c0.229-0.226,0.564-0.437,1.008-0.631l10.064-8.617c0.873-0.728,1.549-0.849,2.027-0.366l10.14,10.248
		c0.363,0.367,0.482,0.809,0.353,1.323c-0.13,0.514-0.412,0.988-0.848,1.42c-0.437,0.433-0.914,0.71-1.429,0.833
		c-0.516,0.123-0.956,0-1.319-0.367l-7.887-7.971l-7.171,6.14l3.039,3.071c2.344,2.369,3.629,4.831,3.856,7.383
		c0.226,2.552-0.915,5.07-3.421,7.55l-0.656,0.649c-2.6,2.572-5.214,3.76-7.845,3.562c-2.63-0.197-5.095-1.458-7.394-3.781
		c-2.367-2.392-3.647-4.87-3.839-7.434C215.611,437.663,216.366,435.539,218.068,433.855z"/>
</g>
<linearGradient id="SVGID_11_" gradientUnits="userSpaceOnUse" x1="211.7156" y1="68.1334" x2="128.8556" y2="148.9934" gradientTransform="matrix(1.0039 0 0 -1.0039 0.1922 516.5605)">
	<stop  offset="0" style="stop-color:#FF5D00;stop-opacity:0"/>
	<stop  offset="1" style="stop-color:#D54003"/>
</linearGradient>
<path style="fill:url(#SVGID_11_);" d="M274.494,459.12l-82.906-82.906c-3.53,2.275-6.88,4.946-9.97,8.036
	c-23.428,23.428-23.428,61.412,0,84.839c23.428,23.428,61.412,23.428,84.839,0C269.547,466,272.219,462.651,274.494,459.12z"/>
<linearGradient id="SVGID_12_" gradientUnits="userSpaceOnUse" x1="373.1448" y1="44.5748" x2="-15.4252" y2="165.8748" gradientTransform="matrix(1.0039 0 0 -1.0039 0.1922 516.5605)">
	<stop  offset="0" style="stop-color:#FFE7A5"/>
	<stop  offset="0.966" style="stop-color:#FFBF5C"/>
</linearGradient>
<circle style="fill:url(#SVGID_12_);" cx="134.994" cy="396.95" r="59.99"/>
<linearGradient id="SVGID_13_" gradientUnits="userSpaceOnUse" x1="374.494" y1="190.4228" x2="-14.076" y2="75.1228" gradientTransform="matrix(1.0039 0 0 -1.0039 0.1922 516.5605)">
	<stop  offset="0" style="stop-color:#FFE7A5"/>
	<stop  offset="0.966" style="stop-color:#FFBF5C"/>
</linearGradient>
<circle style="fill:url(#SVGID_13_);" cx="134.994" cy="396.95" r="57.024"/>
<linearGradient id="SVGID_14_" gradientUnits="userSpaceOnUse" x1="379.757" y1="62.6827" x2="-8.813" y2="152.0527" gradientTransform="matrix(1.0039 0 0 -1.0039 0.1922 516.5605)">
	<stop  offset="0" style="stop-color:#FFE7A5"/>
	<stop  offset="0.966" style="stop-color:#FFBF5C"/>
</linearGradient>
<circle style="fill:url(#SVGID_14_);" cx="134.994" cy="396.95" r="44.203"/>
<g>
	<path style="fill:#DB9E36;" d="M111.095,406.135c0.009-1.585,0.854-2.374,2.537-2.365c1.748,0.009,2.617,0.694,2.61,2.053
		s0.529,2.43,1.609,3.213c1.079,0.782,2.428,1.178,4.047,1.187c3.883,0.021,5.836-2.008,5.857-6.085l0.005-0.923
		c0.011-2.039-0.483-3.57-1.481-4.595c-0.998-1.025-2.418-1.542-4.263-1.552l-7.038-0.037c-1.456-0.008-2.181-0.673-2.173-1.994
		c0.002-0.321,0.09-0.708,0.266-1.16l1.024-13.21c0.102-1.131,0.494-1.697,1.174-1.693l14.416,0.077
		c0.517,0.003,0.913,0.232,1.186,0.686c0.272,0.455,0.408,0.99,0.405,1.604c-0.003,0.615-0.145,1.148-0.421,1.599
		c-0.278,0.453-0.676,0.676-1.193,0.673l-11.214-0.059l-0.729,9.413l4.32,0.023c3.332,0.018,5.981,0.849,7.947,2.494
		c1.965,1.645,2.938,4.232,2.919,7.757l-0.005,0.923c-0.02,3.657-1.029,6.346-3.028,8.065c-2,1.721-4.633,2.572-7.902,2.555
		c-3.366-0.018-6.023-0.864-7.971-2.542C112.05,410.567,111.082,408.531,111.095,406.135z"/>
	<path style="fill:#DB9E36;" d="M137.027,404.041l0.075-14.124c0.02-3.721,1.021-6.45,3.005-8.187
		c1.983-1.737,4.625-2.596,7.926-2.579s5.941,0.906,7.922,2.663c1.981,1.758,2.962,4.499,2.941,8.219l-0.075,14.124
		c-0.02,3.722-1.03,6.45-3.029,8.187c-2,1.737-4.649,2.596-7.95,2.579c-3.301-0.018-5.934-0.906-7.898-2.663
		C137.978,410.502,137.007,407.763,137.027,404.041z M142.172,404.068c-0.022,4.174,1.875,6.272,5.694,6.293
		c1.844,0.01,3.271-0.5,4.28-1.531c1.008-1.03,1.519-2.596,1.53-4.7l0.075-14.124c0.011-2.103-0.482-3.675-1.48-4.716
		c-0.998-1.04-2.418-1.566-4.263-1.576c-3.819-0.02-5.739,2.056-5.762,6.231L142.172,404.068z"/>
</g>
<linearGradient id="SVGID_15_" gradientUnits="userSpaceOnUse" x1="142.7364" y1="53.3742" x2="62.3164" y2="133.7942" gradientTransform="matrix(1.0039 0 0 -1.0039 0.1922 516.5605)">
	<stop  offset="0" style="stop-color:#FF5D00;stop-opacity:0"/>
	<stop  offset="1" style="stop-color:#D54003"/>
</linearGradient>
<path style="fill:url(#SVGID_15_);" d="M118.855,411.09c-10.904-11.679-26.408-19.003-43.631-19.064
	c-0.133,1.625-0.218,3.265-0.218,4.924c0,33.131,26.859,59.99,59.99,59.99c8.724,0,17.004-1.877,24.483-5.226L118.855,411.09z"/>
<linearGradient id="SVGID_16_" gradientUnits="userSpaceOnUse" x1="92.7795" y1="46.0473" x2="7.0145" y2="131.8173" gradientTransform="matrix(1.0039 0 0 -1.0039 0.1922 516.5605)">
	<stop  offset="0" style="stop-color:#FFE7A5"/>
	<stop  offset="0.966" style="stop-color:#FFBF5C"/>
</linearGradient>
<circle style="fill:url(#SVGID_16_);" cx="75.009" cy="452.005" r="59.99"/>
<linearGradient id="SVGID_17_" gradientUnits="userSpaceOnUse" x1="57.19" y1="81.6378" x2="138.72" y2="0.1078" gradientTransform="matrix(1.0039 0 0 -1.0039 0.1922 516.5605)">
	<stop  offset="0" style="stop-color:#FFE7A5"/>
	<stop  offset="0.966" style="stop-color:#FFBF5C"/>
</linearGradient>
<circle style="fill:url(#SVGID_17_);" cx="75.009" cy="452.005" r="57.024"/>
<linearGradient id="SVGID_18_" gradientUnits="userSpaceOnUse" x1="87.9848" y1="50.8426" x2="24.7868" y2="114.0426" gradientTransform="matrix(1.0039 0 0 -1.0039 0.1922 516.5605)">
	<stop  offset="0" style="stop-color:#FFE7A5"/>
	<stop  offset="0.966" style="stop-color:#FFBF5C"/>
</linearGradient>
<circle style="fill:url(#SVGID_18_);" cx="75.009" cy="452.005" r="44.203"/>
<g>
	<path style="fill:#DB9E36;" d="M69.47,479.853l-3.307-3.343c-1.023-1.034-1.648-2.416-1.874-4.146
		c-0.227-1.73-0.189-3.541,0.113-5.432l0.927-5.688c0.309-1.895,0.371-3.707,0.189-5.434c-0.184-1.726-0.752-3.072-1.707-4.037
		c-0.954-0.964-2.105-1.495-3.453-1.592c-1.348-0.096-2.631,0.458-3.851,1.664c-1.035,1.024-1.592,2.141-1.672,3.349
		c-0.079,1.209,0.435,2.371,1.542,3.491c0.361,0.365,0.5,0.862,0.415,1.489c-0.086,0.627-0.417,1.225-0.991,1.794
		c-1.104,1.092-2.327,0.961-3.67-0.398c-1.775-1.794-2.531-3.948-2.265-6.464c0.265-2.516,1.363-4.729,3.296-6.641
		c2.047-2.025,4.424-3.108,7.13-3.249c2.706-0.141,5.064,0.805,7.076,2.838c1.363,1.378,2.256,3.051,2.677,5.019
		c0.422,1.969,0.501,3.912,0.237,5.831c-0.263,1.919-0.572,3.793-0.927,5.62c-0.354,1.827-0.542,3.502-0.563,5.021
		c-0.021,1.521,0.321,2.636,1.025,3.348l1.294,1.309l10.145-10.037c0.322-0.318,0.758-0.442,1.306-0.37
		c0.549,0.071,1.04,0.326,1.472,0.763c0.433,0.438,0.694,0.942,0.783,1.512c0.09,0.571-0.025,1.015-0.344,1.331l-12.2,12.07
		c-0.365,0.361-0.839,0.603-1.421,0.724C70.272,480.31,69.811,480.199,69.47,479.853z"/>
	<path style="fill:#DB9E36;" d="M81.232,455.785l-9.935-10.041c-2.617-2.645-3.839-5.284-3.664-7.914
		c0.174-2.63,1.435-5.107,3.781-7.428c2.346-2.322,4.842-3.561,7.485-3.719c2.643-0.158,5.275,1.087,7.892,3.732l9.935,10.041
		c2.617,2.645,3.833,5.29,3.647,7.931c-0.186,2.642-1.452,5.124-3.799,7.445c-2.346,2.322-4.836,3.556-7.468,3.701
		C86.474,459.681,83.85,458.431,81.232,455.785z M84.89,452.167c2.936,2.968,5.761,3.108,8.475,0.423
		c1.311-1.297,1.96-2.666,1.945-4.109c-0.015-1.441-0.762-2.909-2.242-4.405l-9.935-10.041c-1.479-1.495-2.939-2.258-4.381-2.289
		c-1.442-0.03-2.818,0.602-4.129,1.899c-2.715,2.685-2.603,5.513,0.332,8.48L84.89,452.167z"/>
</g>
<g>
</g>
<g>
</g>
<g>
</g>
<g>
</g>
<g>
</g>
<g>
</g>
<g>
</g>
<g>
</g>
<g>
</g>
<g>
</g>
<g>
</g>
<g>
</g>
<g>
</g>
<g>
</g>
<g>
</g>
</svg>
